<?xml version="1.0" standalone="no"?>
<!DOCTYPE svg PUBLIC "-//W3C//DTD SVG 1.1//EN" "http://www.w3.org/Graphics/SVG/1.1/DTD/svg11.dtd" >
<svg xmlns="http://www.w3.org/2000/svg">
  <metadata>Created by iconfont</metadata>
  <defs>
  <font id="iconfont" horiz-adv-x="1024">
    <font-face
      font-family="iconfont"
      font-weight="400"
      font-stretch="normal"
      units-per-em="1024"
      ascent="896"
      descent="-128"
    />
      <missing-glyph />
      
      <glyph glyph-name="home" unicode="&#58916;" d="M186.72-128c-0.064 143.008-0.224 285.952 0 428.928 0 4.16 2.336 9.536 5.44 12.256 141.28 122.464 282.816 244.704 424.32 366.912 0.896 0.768 2.016 1.312 4.224 2.688 3.648-3.072 7.616-6.272 11.456-9.664 138.048-123.136 276-246.336 414.208-369.312 5.984-5.344 8.352-10.656 8.352-18.624-0.16-137.696-0.032-275.424 0-413.152-84.864 0-169.728 0-254.56 0 0 66.208 0.448 132.448-0.128 198.656-0.864 101.6-84.16 181.024-185.632 177.856-92.704-2.944-170.688-77.664-172.8-168.16-1.632-69.376-0.288-138.88-0.256-208.32-84.896-0.032-169.728-0.032-254.592-0.032zM0.032 337.504c5.824 18.88 18.944 31.904 33.44 44.576 192.192 168.096 384.128 336.448 576.128 504.704 3.328 2.88 6.752 5.632 11.04 9.184 83.328-72.96 166.336-145.696 252.064-220.704 0 9.344 0.512 15.264-0.128 21.056-1.248 11.552 4.256 19.104 14.432 22.272 13.376 4.192 27.104 8.32 40.96 9.888 33.856 3.872 67.744 3.872 100.928-5.632 22.208-6.368 25.696-11.36 25.664-33.984-0.032-54.144 0.064-108.256-0.224-162.4-0.032-7.488 1.984-12.544 7.84-17.6 53.152-46.016 106.016-92.32 158.88-138.624 24.16-21.152 26.656-56.512 5.792-80.32-21.216-24.288-56.576-26.592-81.312-4.896-73.248 64.16-146.368 128.448-219.52 192.608-99.328 87.072-198.688 174.144-298.048 261.184-2.112 1.856-4.352 3.552-7.264 5.92-2.784-2.112-5.664-4.096-8.256-6.4-168.064-147.2-336.096-294.432-504.064-441.664-4.256-3.744-8.224-7.808-12.448-11.552-30.112-26.848-76.032-16.288-91.424 20.992-1.344 3.232-3.008 6.368-4.512 9.536 0 7.264 0 14.56 0 21.824z"  horiz-adv-x="1249" />
      
      <glyph glyph-name="edit" unicode="&#58897;" d="M913.58168 511.310547c-25.367761 0-45.933145-20.565385-45.933145-45.933145l0-408.214239L156.047544 57.163163000000054 156.047544 706.592163l375.434671 0c25.368784 0 45.933145 20.565385 45.933145 45.933145 0 25.368784-20.564361 45.934169-45.933145 45.934169L110.079606 798.459476c-25.367761 0-45.933145-20.565385-45.933145-45.934169 0-0.450255 0.021489-0.895393 0.033769-1.343601l0-738.607064c-0.013303-0.448208-0.033769-0.893346-0.033769-1.343601 0-25.367761 20.565385-45.933145 45.933145-45.933145l803.095821 0c0.067538 0 0.135076 0.005117 0.202615 0.005117 0.068562 0 0.1361-0.005117 0.203638-0.005117 25.368784 0 45.934169 20.564361 45.934169 45.933145L959.515848 465.377402C959.515848 490.745163 938.950464 511.310547 913.58168 511.310547zM531.852652 284.67892400000005l412.139641 414.500409c19.783579 19.783579 19.784602 51.861158 0 71.64576l-46.322002 46.322002c-19.785625 19.784602-51.863205 19.784602-71.647807 0L413.88489 402.648732 531.852652 284.67892400000005zM373.206422 239.932814L508.80268 264.34071300000005 397.613298 375.528048Z"  horiz-adv-x="1024" />
      
      <glyph glyph-name="facebook" unicode="&#58912;" d="M777.05407879 888.03566532l0-161.97775072-96.32221762 0c-35.18414878 0-58.915373-7.35628459-71.19250935-22.06885263-12.27713634-14.71256804-18.41512229-36.79304559-18.41512228-66.24375691l0-115.9556374 179.7651259 0-23.91373624-181.61233381L591.12422954 340.17733159l0-465.67092198L403.38669684-125.49359039000001 403.38669684 340.17616943999997 246.94475793 340.17616943999997 246.94475793 521.7885032199999l156.44077562 0 0 133.7453369c0 76.07267335 21.27021725 135.07872128 63.81065064 177.01581836 42.53927123 41.93825924 99.18893635 62.90738999 169.9489965 62.90738999 60.13134506 0 106.76725741-2.44821991 139.90889923-7.34349641L777.05407879 888.03566532 777.05407879 888.03566532z"  horiz-adv-x="1024" />
      
      <glyph glyph-name="pinterest" unicode="&#59563;" d="M121.58087 530.067087c0-102.025905 38.769844-190.448356 121.750913-223.776818a20.405181 20.405181 0 0 1 30.607772 14.283627c2.720691 10.202591 9.182331 36.389239 12.243109 46.931916a28.227167 28.227167 0 0 1-8.502159 34.008635 167.662571 167.662571 0 0 0-39.10993 114.949186 279.891066 279.891066 0 0 0 293.154433 280.571239c159.840585 0 247.582863-96.244437 247.582863-224.456991 0-170.043175-75.839256-311.519097-188.747924-311.519097a91.143142 91.143142 0 0 0-93.863833 112.908669c17.68449 74.138824 52.373298 154.399203 52.373298 207.79276a78.900033 78.900033 0 0 1-81.280638 87.062105c-63.596147 0-114.949186-64.956493-114.949186-151.678512a222.416473 222.416473 0 0 1 19.044836-92.843574l-76.179343-319.341082a646.164065 646.164065 0 0 1-1.700431-222.756559 7.821986 7.821986 0 0 1 14.283626-3.400864 624.058452 624.058452 0 0 1 107.467287 191.808701c7.4819 26.186649 41.830621 161.20093 41.830621 161.20093a170.043175 170.043175 0 0 1 145.216871-73.118565c191.468615 0 321.041514 171.743607 321.041515 401.64198 0 173.784125-149.637994 335.665227-376.815676 335.665227-282.611757 0-425.448024-199.630687-425.448024-365.932913z"  horiz-adv-x="1024" />
      
      <glyph glyph-name="linkedin" unicode="&#58952;" d="M225.87593527-96.90335764999998H25.72342053V542.5100452500001h200.15251474z m-104.77782653 720.011731a110.1510484 110.1510484 0 0 0-119.55418665 110.15104838 111.49435385 111.49435385 0 0 0 122.24079758 111.49435387 111.49435385 111.49435385 0 1 0 0-221.64540225z m904.04458012-718.66842552h-227.01862413V234.89309303000005c0 85.97154998-34.92594215 145.07699055-112.83765933 145.07699055a114.18096478 114.18096478 0 0 1-107.46443747-77.91171713 147.76360148 147.76360148 0 0 1 0-52.38891327v-345.22950535H346.77342738V543.8533507h224.33201324v-100.74791008a204.18243117 204.18243117 0 0 0 198.80920928 106.121132c142.39037964 0 253.88473348-91.34477185 253.8847335-290.15398116z"  horiz-adv-x="1024" />
      
      <glyph glyph-name="youtube" unicode="&#59094;" d="M500.20116509 512.5689081c25.91000508 0 45.59449486 9.5457915 59.64637318 28.69666439 10.73160408 14.0518793 15.71201691 36.58231828 15.7120169 66.40550536v98.42244595c0 29.82318708-4.98041283 51.76072027-15.7120169 65.81259956-14.11117017 19.03229213-33.79565897 28.6373745-59.64637318 28.6373745-25.37638917 0-45.06087895-9.5457915-58.99417748-28.6373745-10.73160408-14.11117017-15.77130778-36.04870336-15.77130778-65.87189044v-98.42244496c0-29.82318708 5.0397037-51.76072027 15.77130778-66.40550635 13.93329853-19.091583 33.61778733-28.6373745 58.99417748-28.63737351z m-24.19057757 203.60402311c0 25.8507142 7.88565389 38.7760718 24.19057757 38.77607179 16.89782948 0 24.19057659-12.92535759 24.1905766-38.7760718V598.06599646c0-25.91000508-7.29274711-39.36897858-24.1905766-39.36897858-16.30492369 0-24.19057659 13.51826339-24.19057757 39.36897858V716.17293121z m145.67707743-182.79301261c-2.84595019 8.47855969-4.44679692 21.93753319-4.44679692 42.15563789V797.16393177h51.16781349v-206.39068341c0-11.85812578 0-18.55796709 0.59290678-19.74377967 1.1265217-7.88565389 5.0397037-12.33245081 11.7988349-12.33245081 10.07940741 0 20.75172061 7.88565389 32.0169406 24.19057659V797.16393177h51.16781348v-280.68184266h-51.16781348v30.94970878c-20.2181047-23.5976708-39.3096877-34.86289078-57.98623655-34.86288979-16.30492369 0-28.10375859 6.69984131-33.1434623 20.8110105z m194.65113839-340.32821583v-25.85071421h-50.63419757v25.85071421c0 25.31709928 8.47855969 38.30174677 25.31709928 38.30174676 16.83853861-0.05929087 25.31709928-12.98464748 25.31709829-38.30174676zM266.18104812 788.15175617A10545.43144528 10545.43144528 0 0 0 229.59872984 893.33333333h59.70566405l39.9025935-147.93012183L367.44944427 893.33333333h57.39332976L356.77713106 668.91829874v-152.43620963h-56.20751718V668.91829874c-5.09899458 27.57014269-16.36421358 66.93912127-34.38856575 119.23345743z m647.98729538-415.68660689A105.77448394 105.77448394 0 0 1 824.16516636 454.58267155c-103.52143955 11.26521998-208.16940178 11.26521998-312.22445724 11.26521998s-208.70301769 0-311.63155045-11.26521998c-43.75648462-5.0397037-79.80518798-37.64955009-90.47750217-82.11752227-14.0518793-62.96664937-14.64478608-131.62519814-14.64478509-196.8448919 0-64.68607687 0-133.81895166 14.64478509-196.84489093 10.1386973-44.46797217 46.72101656-77.07781856 90.00317714-81.58390734C303.29698231-114.6073758 407.94494455-114.6073758 512-114.6073758s208.70301769 0 312.22445723 11.79883491c43.2228697 4.5060878 79.27157208 37.11593419 90.00317616 81.58390735 14.0518793 62.96664937 14.64478608 132.15881405 14.64478608 196.84489092-0.05929087 65.21969278-0.05929087 133.87824253-14.70407597 196.8448919z m-581.04817411-56.80042397H272.9994702v-320.05082025H216.73266312V315.66472531h-59.11275825v52.88724197h175.50026452v-52.88724197z m151.90259372-320.05082025H434.92218144v30.35680299c-20.27739558-23.06405489-39.36897858-34.32927488-57.39332977-34.32927488-16.24563281 0-28.10375859 6.75913219-32.60984737 20.8110105-2.84595019 8.4192698-4.5060878 21.40391728-4.5060878 41.02911619v219.9089468h50.10058266v-204.7305458c0-11.85812578 0-18.02435119 0.5336159-19.74377967 1.18581258-7.82636302 5.09899458-11.79883491 11.79883491-11.79883491 10.19798817 0 20.87030138 7.82636302 32.07623147 23.5976708v212.6161987h50.10058167v-277.71731072z m191.2715723 83.24404496c0-25.91000508-1.18581258-44.40868228-5.0989936-56.20751817-6.16622541-20.27739558-20.27739558-30.94970878-39.96188536-30.94970879-17.9650613 0-35.45579658 10.1386973-52.35362606 30.94970879v-27.03652679h-49.98200091v372.93806222h49.98200091v-122.07940664c16.30492369 20.27739558 33.79565897 30.35680298 52.35362606 30.356802 19.6844888 0 33.79565897-10.6723132 39.96188536-31.4833237 3.913182-11.26521998 5.09899458-29.7638962 5.0989936-55.67390227v-110.81418665z m190.08575971 46.12810978h-100.67548935v-48.91477008c0-25.91000508 8.47855969-38.7760718 25.91000507-38.7760718 12.39174169 0 19.6844888 6.69984131 22.53043899 20.21810471 0.53361591 2.78665931 1.1265217 14.0518793 1.12652269 34.32927487h51.16781348v-7.35203798c0-16.30492369 0-27.57014269-1.1265217-32.60984639-1.18581258-11.20592911-5.69190038-21.34462641-11.79883589-30.35680299-13.57755427-19.6844888-34.32927488-29.82318708-60.71360499-29.82318708-26.44362098 0-46.18740066 9.5457915-60.77289586 28.69666538-10.6723132 13.51826339-16.30492369 35.45579658-16.3049227 65.27898366v97.29592326c0 29.82318708 5.09899458 51.16781348 15.7713068 65.27898366 14.64478608 19.15087387 34.32927488 28.69666537 60.23928093 28.69666537 25.37638917 0 45.00158808-9.5457915 59.5870823-28.69666537 10.19798817-14.0518793 15.23769187-35.3965057 15.23769188-65.27898366v-57.98623556z m-240.18634139 68.65854975v-118.69984153c0-25.31709928-7.35203798-37.64955009-21.93753318-37.6495501-8.47855969 0-16.89782948 3.913182-25.37639016 12.33245082v169.27474921c8.47855969 8.47855969 16.89782948 12.39174169 25.37639016 12.39174169 14.5854952 0 21.93753319-12.92535759 21.93753318-37.64955009z"  horiz-adv-x="1024" />
      
      <glyph glyph-name="twitter" unicode="&#58887;" d="M1022.037333 701.056a426.666667 426.666667 0 0 0-120.533333-33.066667 211.541333 211.541333 0 0 1 92.288 116.181334c-40.576-23.68-85.546667-40.917333-133.418667-50.517334a209.92 209.92 0 0 1-357.717333-191.232C328.149333 550.656 173.482667 634.4533329999999 69.973333 761.130667a205.738667 205.738667 0 0 1-28.416-105.6c0-72.96 37.12-137.088 93.354667-174.762667a209.237333 209.237333 0 0 0-95.061333 26.282667v-2.602667a210.048 210.048 0 0 1 168.362666-205.952 213.162667 213.162667 0 0 0-94.378666-3.626667 210.645333 210.645333 0 0 1 196.437333-145.792 421.034667 421.034667 0 0 0-260.352-89.813333c-16.64 0-33.237333 0.981333-49.92 2.858667a597.12 597.12 0 0 1 322.432-94.250667c386.304 0 597.290667 319.829333 597.290667 596.736 0 8.917333 0 17.92-0.64 26.88a423.936 423.936 0 0 1 104.96 108.714667l-2.005334 0.853333z"  horiz-adv-x="1024" />
      
      <glyph glyph-name="bigger" unicode="&#58951;" d="M832.225 119.47799999999995l1.322-1.223 163.245-163.278a35.146 35.146 0 1 0-49.68-49.68L783.866 68.54200000000003l-1.982 2.114a464.929 464.929 0 0 0-298.942-108.28c-257.816 0-466.812 208.995-466.812 466.812S225.126 896 482.942 896s466.812-208.995 466.812-466.812c0-118.817-44.428-227.262-117.529-309.71zM447.796 464.334V599.866a35.146 35.146 0 0 0 70.293 0v-135.532h135.498a35.146 35.146 0 1 0 0-70.292H518.089v-135.499a35.146 35.146 0 1 0-70.293 0V394.042H312.265a35.146 35.146 0 0 0 0 70.292h135.531zM482.942 815.7c-213.454 0-386.477-173.056-386.477-386.478 0-213.487 173.023-386.51 386.477-386.51 213.455 0 386.478 173.023 386.478 386.477 0 213.455-173.023 386.478-386.478 386.478z"  horiz-adv-x="1024" />
      
      <glyph glyph-name="left" unicode="&#59180;" d="M10.06 407.335c0-1.909-1.908-3.817-1.908-3.817 0-1.909 0-1.909-1.909-3.817-1.908-5.726-1.908-13.36 0-19.086 0-1.908 0-1.908 1.909-3.817 0-1.908 0-3.817 1.908-3.817 0-1.908 1.909-3.817 1.909-3.817 0-1.908 1.908-1.908 1.908-3.817 1.909-1.908 3.817-5.725 5.726-7.634L370.77 6.546000000000049c9.542-9.542 20.994-13.36 34.353-13.36s24.81 3.818 34.353 13.36c19.086 19.085 19.086 49.622 0 66.798L168.467 340.53700000000003h801.577c26.719 0 47.713 20.993 47.713 47.712s-20.994 47.713-47.713 47.713H168.467l269.1 269.101c19.086 19.085 19.086 49.621 0 66.798-19.084 19.085-49.62 19.085-66.797 0L19.603 422.603c-1.909-1.909-3.817-3.817-5.726-7.634 0-1.909-1.908-1.909-1.908-3.817s-1.909-3.817-1.909-3.817z"  horiz-adv-x="1024" />
      
      <glyph glyph-name="right" unicode="&#59181;" d="M1013.94 360.66499999999996c0 1.909 1.908 3.817 1.908 3.817 0 1.909 0 1.909 1.909 3.817 1.908 5.726 1.908 13.36 0 19.086 0 1.908 0 1.908-1.909 3.817 0 1.908 0 3.817-1.908 3.817 0 1.908-1.909 3.817-1.909 3.817 0 1.908-1.908 1.908-1.908 3.817-1.909 1.908-3.817 5.725-5.726 7.634L653.23 761.454c-9.542 9.542-20.994 13.36-34.353 13.36s-24.81-3.818-34.353-13.36c-19.086-19.085-19.086-49.622 0-66.798l271.009-267.193H53.956c-26.719 0-47.713-20.993-47.713-47.712s20.994-47.713 47.713-47.713h801.577l-269.1-269.101c-19.086-19.085-19.086-49.621 0-66.798 19.084-19.085 49.62-19.085 66.797 0l351.167 349.258c1.909 1.909 3.817 3.817 5.726 7.634 0 1.909 1.908 1.909 1.908 3.817s1.909 3.817 1.909 3.817z"  horiz-adv-x="1024" />
      
      <glyph glyph-name="up1" unicode="&#59182;" d="M510.85 496.913l383.663-376.697c28.372-27.861 74.317-27.861 102.625 0 28.308 27.797 28.308 72.911 0 100.644l-434.72 426.924c-14.25 13.994-32.91 20.896-51.568 20.832-18.66 0.064-37.255-6.838-51.505-20.832L24.625 220.86c-28.308-27.797-28.308-72.911 0-100.644 28.309-27.861 74.254-27.861 102.498 0L510.85 496.913z"  horiz-adv-x="1024" />
      
      <glyph glyph-name="bottom1" unicode="&#59183;" d="M513.15 271.087L129.487 647.784c-28.372 27.861-74.317 27.861-102.625 0-28.308-27.797-28.308-72.911 0-100.644l434.72-426.924c14.25-13.994 32.91-20.896 51.568-20.832 18.66-0.064 37.255 6.838 51.505 20.832l434.72 426.924c28.308 27.797 28.308 72.911 0 100.644-28.309 27.861-74.254 27.861-102.498 0L513.15 271.087z"  horiz-adv-x="1024" />
      
      <glyph glyph-name="left1" unicode="&#59184;" d="M399.087 382.85l376.697 383.663c27.861 28.372 27.861 74.317 0 102.625-27.797 28.308-72.911 28.308-100.644 0l-426.924-434.72c-13.994-14.25-20.896-32.91-20.832-51.568-0.064-18.66 6.838-37.255 20.832-51.505l426.924-434.72c27.797-28.308 72.911-28.308 100.644 0 27.861 28.309 27.861 74.254 0 102.498L399.087 382.85z"  horiz-adv-x="1024" />
      
      <glyph glyph-name="right1" unicode="&#59185;" d="M624.913 385.15L248.216 1.4869999999999663c-27.861-28.372-27.861-74.317 0-102.625 27.797-28.308 72.911-28.308 100.644 0l426.924 434.72c13.994 14.25 20.896 32.91 20.832 51.568 0.064 18.66-6.838 37.255-20.832 51.505L348.86 871.375c-27.797 28.308-72.911 28.308-100.644 0-27.861-28.309-27.861-74.254 0-102.498L624.913 385.15z"  horiz-adv-x="1024" />
      
      <glyph glyph-name="up" unicode="&#59198;" d="M460.8-128V700.877L72.192 312.37 0.512 384.05 512 895.334l511.488-511.283-71.68-71.68L563.2 700.877V-128H460.8z"  horiz-adv-x="1024" />
      
      <glyph glyph-name="bottom" unicode="&#59199;" d="M563.2 896v-828.877L951.808 455.63l71.68-71.68L512-127.33399999999995 0.512 383.94899999999996l71.68 71.68L460.8 67.12300000000005V896h102.4z"  horiz-adv-x="1024" />
      
      <glyph glyph-name="instagram" unicode="&#59293;" d="M899.465825 896H131.46558C59.178411 896 3.466682 840.28827 3.466682 767.999143v-767.999265c0-72.255832 55.71173-127.999878 127.999877-127.999878H899.466804c72.255832 0 127.999878 55.744046 127.999878 127.999878V767.999143c0 72.288148-55.744046 128.000857-127.999878 128.000857zM516.201638 585.151269c113.568101 0 205.599687-89.183815 205.599687-199.231374 0-109.983905-92.031586-199.232352-205.599687-199.232352-113.472131 0-205.536033 89.248448-205.536034 199.232352C310.697921 495.967454 402.761823 585.151269 516.201638 585.151269z m383.264187-553.151177c0-22.432564-9.599966-32.000214-32.000214-32.000214h-704.000796c-22.366952 0-31.999235 9.56765-31.999235 31.999235V479.999174l79.775789-17.343202c-8.543314-27.841175-13.2155-57.28055-13.2155-87.84023 0-170.17588 142.527624-308.287892 318.175769-308.287892 175.743136 0 318.208085 138.079695 318.208085 308.287892 0 30.559681-4.639869 60.000034-13.184162 87.84023l78.240264 17.343202V32.000092z m0 575.999939c0-17.695745-14.304469-32.000214-32.000214-32.000215H739.465733c-17.695745 0-32.000214 14.30349-32.000214 32.000215V735.999908c0 17.695745 14.304469 31.999235 32.000214 31.999235h127.999878c17.695745 0 32.000214-14.30349 32.000214-31.999235v-127.999877z"  horiz-adv-x="1049" />
      
      <glyph glyph-name="tumblr" unicode="&#59294;" d="M574.981242 896v-256.000982h251.886655v-160.000983H574.981242v-256.001965c0-59.455377 5.573205-107.200442 11.776134-124.09689 6.202929-16.831609 17.695146-30.271943 34.602401-40.447732 22.38713-13.631904 47.859024-20.480275 76.637706-20.480276 51.100973 0 110.546526 17.663709 160.388051 56.992479v-160.000983c-41.970466-26.688116-90.112424-43.265281-125.093052-51.552881-34.980628-8.256163-72.795505-12.415682-113.412213-12.415681-42.474442 0-83.500814 4.73521-122.354097 17.791422-35.484604 11.840973-55.289964 24.961041-80.351211 46.816689-25.000338 21.951923-37.185153 43.968686-46.851073 68.704755-9.666902 24.608357-15.7431 75.776134-15.7431 122.689098V479.998035h-125.944801V639.9980350000001c40.334756 3.008136 73.677709 14.559298 101.826666 38.912228 28.368035 24.511098 51.038099 53.855647 68.071102 88.127959 17.160716 34.304731 19.018451 76.288951 19.018451 128.960796h157.429036z"  horiz-adv-x="1034" />
      
      <glyph glyph-name="download" unicode="&#59296;" d="M554.656 59.74400000000003v409.6h-85.344v-409.6l-98.144 98.144-59.744-59.744L511.968-102.39999999999998l200.544 200.544-59.744 59.744zM806.4 640C785.056 785.056 661.344 896 512 896S234.656 785.056 217.6 640C93.856 631.456 0 529.056 0 405.344c0-128 106.656-234.656 234.656-234.656h64v85.344h-64c-85.344 0-149.344 64-149.344 149.344s64 149.344 149.344 149.344h4.256l59.744-29.856v72.544c0 119.456 93.856 213.344 213.344 213.344s213.344-93.856 213.344-213.344v-72.544l59.744 29.856h4.256c85.344 0 149.344-64 149.344-149.344s-64-149.344-149.344-149.344h-64v-85.344h64c128 0 234.656 106.656 234.656 234.656 0 123.744-93.856 226.144-217.6 234.656z"  horiz-adv-x="1024" />
      
      <glyph glyph-name="download1" unicode="&#59303;" d="M514.899 210.34799999999996L217.117 500.967h195.451V883.683h197.499v-382.716H815.75zM1017.406-7.105000000000018l-84.935 235.36-119.726-2.046 49.118-146.333H162.37l49.119 146.333-119.727 2.046-84.934-235.36s-14.668-51.848 16.032-77.43 103.694-21.325 103.694-21.325H897.68s72.995-4.258 103.695 21.325 16.032 77.43 16.032 77.43z"  horiz-adv-x="1024" />
      
      <glyph glyph-name="search4" unicode="&#59314;" d="M129.75277161 770.18831301c164.25877671 162.29062003 430.56707283 162.29062003 594.8246567 0 151.65899559-149.83755605 163.16973-385.56189046 34.78866007-548.57416793l67.15111973-66.38055657c10.99662804 3.74069048 22.73280588 2.04807576 30.43843742-5.59672187L1013.50759787-5.029233770000019c11.50954161-11.38190962 9.78233502-31.58831805-3.90172149-45.08510146l-61.97069282-61.23352868c-13.68405652-13.52660398-34.11471551-15.2502321-45.65765613-3.86712965L745.42557509 39.41770782000003c-7.70682436 7.64241196-9.43403094 19.249765-5.63012088 30.12233954l-69.00357264 68.10895598c-164.24207719-115.62622195-393.68023849-100.72429394-541.04030279 44.85846524-164.24207719 162.27869181-164.24207719 425.40215262 0.00119283 587.68084443z m86.74918881-501.982532c116.34430092-114.95347021 304.99867768-114.95347021 421.32508626 0 116.35980761 114.94989175 116.35980761 301.31882113 0 416.28779802-116.34072246 114.95347021-304.98078534 114.93438506-421.32508626 0.00119283-116.34191528-114.95347021-116.34191528-301.33909911 0-416.28899085z m390.34152909 385.70264347a25.7291753 25.7291753 0 0 0 0-36.75323825c-10.26423522-10.13898887-26.89098414-10.15449556-37.18742555 0l0.03101337 0.0322062c-78.86940523 77.60382086-206.19482751 77.60382086-285.01294137-0.0322062-10.24753571-10.13898887-26.92557598-10.13898887-37.17311168 0a25.76018868 25.76018868 0 0 0 0 36.72103205c99.25235132 98.05356499 260.07580004 98.05237218 359.34246523 0.0322062z"  horiz-adv-x="1024" />
      
      <glyph glyph-name="address" unicode="&#59324;" d="M948.12306832 456.70535439c0 240.90919179-195.32293457 436.23212636-436.23212636 436.23212638s-436.23212636-195.32293457-436.23212637-436.23212638c0-118.90960711 47.73106516-226.58623697 124.87144619-305.2897831h-0.18176339l1.78128119-1.78128119c0.87246424-0.87246424 1.74492851-1.78128119 2.65374542-2.65374542l246.65291479-246.65291479c33.37175766-33.37175766 87.46454133-33.37175766 120.83629901 0l246.65291478 246.65291479c0.87246424 0.87246424 1.78128119 1.74492851 2.65374544 2.65374542l1.78128118 1.78128119h-0.18176339C900.39200316 230.11911741999995 948.12306832 337.79574728 948.12306832 456.70535439zM572.30909146 3.0239429800000153c-60.34544414-60.34544414-60.38179683-60.49085486-120.836299 0L254.98657221 200.56439086C189.36998987 266.25367856 148.36417001 356.48102336 148.36417001 456.70535439c0 200.77583616 162.75093581 363.52677197 363.52677195 363.52677197s363.52677197-162.75093581 363.52677197-363.52677197c0-100.22433103-41.00581989-190.45167583-106.6224022-256.14096353L572.30909146 3.0239429800000153zM512 674.82141758c-120.47277224 0-218.11606319-97.64329095-218.11606319-218.11606319s97.64329095-218.11606319 218.11606319-218.11606317 218.11606319 97.64329095 218.11606319 218.11606317-97.64329095 218.11606319-218.11606319 218.11606319z m0-363.52677197c-80.30306392 0-145.41070878 65.10764485-145.41070878 145.41070878s65.10764485 145.41070878 145.41070878 145.4107088 145.41070878-65.10764485 145.41070878-145.4107088-65.10764485-145.41070878-145.41070878-145.41070878z"  horiz-adv-x="1024" />
      
      <glyph glyph-name="email" unicode="&#59325;" d="M912.49777778 748.08888889H111.50222222c-60.22030222 0-109.22666667-49.00636445-109.22666667-109.22666667v-509.72444444c0-60.22030222 49.00636445-109.22666667 109.22666667-109.22666667h800.99555556c60.22030222 0 109.22666667 49.00636445 109.22666667 109.22666667V638.8622222199999c0 60.22030222-49.00636445 109.22666667-109.22666667 109.22666667z m-834.27328-94.59029334l269.28014222-269.28014222L75.09333333 151.71128889V638.8622222199999c0 5.24288 1.23790222 10.12167111 3.13116445 14.63637333z m320.98076444-320.98076444l35.53507556-35.53507556c20.60743111-20.60743111 48.05973333-31.96700445 77.25966222-31.96700444s56.65223111 11.35957333 77.25966222 31.96700444l31.38446223 31.31164445L896.76913778 92.72888889000001H118.12864l281.07662222 239.78894222zM672.19911111 379.99502222l273.50357334 273.50357333C947.66876445 649.05671111 948.90666667 644.1051022199999 948.90666667 638.8622222199999v-495.01525333L672.19911111 379.99502222zM864.51086222 675.27111111L537.77749333 348.53774222000004c-13.76256-13.76256-37.71960889-13.76256-51.48216888 0L159.48913778 675.27111111h705.02172444z"  horiz-adv-x="1024" />
      
      <glyph glyph-name="contact" unicode="&#59326;" d="M510.18161956 893.02474982c-162.56548249 0-294.8118962-132.2515737-294.8118962-294.81808819 0-117.73033006 69.52260821-219.26448375 169.52630889-266.48251953C200.01565735 277.42969614000003 64.52464197 106.49986998999998 64.52464197-95.70775106999997c0-12.86901487 10.42937163-23.28806652 23.28806652-23.28806652 12.85869489 0 23.28806652 10.42008365 23.28806652 23.28806652 0 220.05912219 179.0464903 399.09735652 399.07981254 399.09735652 162.56548249 0 294.82324817 132.2515737 294.82324817 294.81808817S672.74607004 893.02578181 510.18058755 893.02578181z m0-543.05797935c-136.88627664 0-248.23473116 111.36599849-248.23473118 248.23989116 0 136.88214865 111.34742253 248.23989116 248.23473118 248.23989116 136.89143664 0 248.24608315-111.3587745 248.24608313-248.23989116 0-136.88214865-111.34742253-248.23989116-248.24608313-248.23989116z m0 0zM780.51039556 258.65352482000003c-10.238452 7.80087277-24.83606349 5.86794054-32.63487226-4.36638348-7.82151273-10.23329202-5.86794054-24.8319355 4.36328749-32.65654421 99.79730108-76.25742706 157.01746132-191.92892114 157.01746132-317.33112422 0-12.87417485 10.43453162-23.2942585 23.28909852-23.29425849 12.86901487 0 23.28806652 10.42008365 23.28806651 23.29425849 0 140.04935047-63.90544318 269.20596221-175.32407357 354.35611591z m0 0z"  horiz-adv-x="1024" />
      
      <glyph glyph-name="whatsapp" unicode="&#59327;" d="M549.74273016-95.38234921000003c-78.4111746 0-156.288 18.90742857-225.2312381 54.67834921-2.752 0.93257143-25.46996825 6.35936508-143.28380952-14.06273016-63.40266667-10.98971429-122.66666667-23.96444444-123.25587302-24.09447619L1.99111111-91.14819048000004l35.0831746 45.32317461c0.28647619 0.36977778 28.96863492 37.50704762 55.78463492 79.33561904 46.60825397 72.70095238 45.78539683 93.77930159 45.34857143 96.704-47.72469841 75.59415873-72.94577778 162.81701587-72.94577778 252.29917461 0 64.54349206 12.8264127 127.16495238 38.12266667 186.1231746 24.4215873 56.91834921 59.37371429 108.02590476 103.8831746 151.90450794 44.4911746 43.85828571 96.29866667 78.29130159 153.98501588 102.34514285 59.71301587 24.89803175 123.13092063 37.52228571 188.49015873 37.52228572s128.77714286-12.62425397 188.49015873-37.52228572c57.68634921-24.0528254 109.49384127-58.48685714 153.98501587-102.34514285 44.51047619-43.87860317 79.4615873-94.98615873 103.8831746-151.90349207 25.29726984-58.9592381 38.12368254-121.58069841 38.12368254-186.12419047 0-64.54349206-12.8264127-127.16393651-38.12266667-186.12419048-24.4215873-56.91733333-59.37269841-108.02488889-103.88419047-151.90349206-44.4911746-43.85828571-96.29866667-78.29231746-153.98501587-102.34514286-59.71403175-24.89701587-123.13092063-37.52330159-188.49015873-37.52330159z m-241.56444445 97.5888254c20.39466667 0 29.34857143-2.81396825 35.21015873-5.85955556 63.1192381-32.80761905 134.4751746-50.14653968 206.35428572-50.14653968 244.21587302 0 442.90031746 195.72825397 442.90031746 436.31339683 0 240.58412698-198.68444444 436.3144127-442.90031746 436.3144127s-442.90031746-195.73028571-442.90031746-436.3144127c0-81.86311111 23.1415873-161.6487619 66.92571428-230.7352381 9.40190476-14.83479365 7.92685714-35.72114286-4.64050794-65.73104762-8.00101587-19.10552381-20.78273016-42.60063492-37.98857142-69.8351746-9.82044444-15.54285714-19.9151746-30.47314286-29.00012699-43.46311111 21.80368254 4.33371429 48.25498413 9.37752381 75.27822222 14.02209524 38.75047619 6.66209524 71.16901587 11.2264127 96.35555556 13.57003174 14.17549206 1.3175873 25.40495238 1.86514286 34.40660317 1.86514286zM765.44507936 173.20939682999995c-28.78984127-74.59149206-96.82692063-55.47479365-124.81625397-38.2608254C330.38526984 275.41333333 317.80266666 513.09003175 315.01206349 547.55555556c-16.75885714 24.99453968 43.35746032 163.36660317 150.79111111 68.13460317 34.00838095-36.39466667-40.94069841-108.02793651-40.94069841-108.02793651s14.15822222-80.4591746 72.20215873-148.59885714C547.52812698 299.81968254000003 647.20253968 233.62031746000002 647.20253968 233.62031746000002s34.71238095 33.51771429 69.85752381 36.58869841c44.34184127 4.8792381 71.20863492-24.54552381 48.38501587-96.99961904z"  horiz-adv-x="1037" />
      
      <glyph glyph-name="fax" unicode="&#59330;" d="M260.55111111 147.68355555000005c0-3.41333333 3.41333333-3.41333333 6.82666667-6.71288888 3.41333333-3.41333333 3.41333333-3.41333333 6.82666667-3.41333334s6.82666667-3.41333333 10.24-3.41333333h455.33866666c3.41333333 0 6.82666667 0 10.24 3.41333333 3.41333333 0 6.82666667 3.41333333 10.24 6.71288889 3.41333333 3.41333333 3.41333333 6.71288889 6.82666667 10.12622223 0 3.41333333 3.41333333 6.71288889 3.41333333 10.12622222 0 6.71288889-3.41333333 13.53955555-6.82666666 20.25244444-6.82666667 6.71288889-13.53955555 6.71288889-20.36622223 6.71288889H284.33066667c-3.41333333 0-10.24 0-13.53955556-3.41333333l-10.24-10.12622222c-3.41333333-3.41333333-3.41333333-10.12622222-3.41333333-13.53955556s0-6.71288889 3.41333333-10.12622222c-3.41333333-3.18577778 0-6.59911111 0-6.59911112z m3.41333334-111.38844444c0-3.41333333 3.41333333-3.41333333 6.82666666-6.71288889 3.41333333-3.41333333 3.41333333-3.41333333 6.82666667-3.41333333s6.82666667-3.41333333 10.24-3.41333334h455.33866667c3.41333333 0 6.82666667 0 10.24 3.41333334 3.41333333 0 6.82666667 3.41333333 10.24 6.71288889 3.41333333 3.41333333 3.41333333 6.71288889 6.82666666 10.12622222 0 3.41333333 3.41333333 6.71288889 3.41333334 10.12622222 0 6.71288889-3.41333333 13.53955555-6.82666667 20.25244445-13.53955555 3.41333333-20.36622222 6.71288889-27.19288889 6.71288888H284.33066667c-6.82666667 0-13.53955555-3.41333333-20.36622222-6.71288888-6.82666667-6.71288889-6.82666667-13.53955555-6.82666667-20.25244445 0-3.41333333 0-6.71288889 3.41333333-10.12622222 0-3.29955555 3.41333333-6.71288889 3.41333334-6.71288889z m733.98044444 627.93955556c-16.95288889 16.83911111-34.01955555 23.66577778-57.79911111 23.66577778h-71.33866667V812.71466667c0 20.25244445-6.82666667 40.50488889-23.77955556 57.344C828.07466667 887.01155555 811.008 893.72444445 790.64177778 893.72444445H233.35822222c-20.36622222-3.41333333-40.73244445-10.12622222-54.38577777-26.96533334-16.95288889-16.83911111-23.77955555-33.792-23.77955556-57.344V687.7866666699999h-74.752c-20.36622222 0-40.73244445-6.71288889-54.38577778-23.66577778C9.10222222 650.69511111 2.27555555 630.44266667 2.27555555 610.19022222v-452.38044444c0-20.25244445 6.82666667-40.50488889 23.77955556-57.344C43.008 83.62666666999996 60.07466667 76.79999999999995 83.85422222 76.79999999999995h71.33866667v-121.51466667c0-20.25244445 6.82666667-40.50488889 23.77955556-57.344 16.95288889-16.83911111 34.01955555-23.66577778 54.38577777-23.66577778h557.28355556c20.36622222 0 40.73244445 6.71288889 54.38577777 23.66577778 16.95288889 16.83911111 23.77955555 33.792 23.77955556 57.344V80.21333332999995h71.33866667c20.36622222 0 40.73244445 6.71288889 57.79911111 23.66577778 16.95288889 16.83911111 23.77955555 33.792 23.77955556 57.344V610.19022222c0 20.25244445-6.82666667 40.50488889-23.77955556 54.04444445zM212.992 812.71466667c0 3.41333333 0 6.71288889 3.41333333 10.12622222 0 3.41333333 3.41333333 6.71288889 3.41333334 6.71288889 3.41333333 3.41333333 3.41333333 3.41333333 6.82666666 3.41333333H790.75555555c6.82666667 0 10.24-3.41333333 13.53955556-6.71288889 3.41333333-3.41333333 6.82666667-10.12622222 6.82666667-16.83911111V687.7866666699999H212.992V812.71466667z m601.42933333-857.42933334h-3.41333333c0-3.41333333 0-6.71288889-3.41333333-10.12622222s-3.41333333-6.71288889-6.82666667-6.71288889c-3.41333333-3.41333333-6.82666667-3.41333333-10.24-3.41333333H226.53155555c-3.41333333 0-3.41333333 0-3.41333333 3.41333333l-3.41333333 3.41333333-3.41333334 3.41333334c0 3.41333333 0 3.41333333-3.41333333 6.71288889V282.73777778h601.42933333v-327.45244445z m149.504 205.93777778c0-6.71288889 0-10.12622222-3.41333333-13.53955556 0-3.41333333-3.41333333-3.41333333-3.41333333-6.71288888-3.41333333-3.41333333-3.41333333-3.41333333-6.82666667-3.41333334s-6.82666667-3.41333333-10.24-3.41333333h-71.33866667V279.32444445h23.77955556c6.82666667 0 13.53955555 3.41333333 20.36622222 6.71288888 6.82666667 6.71288889 6.82666667 13.53955555 6.82666667 20.25244445v10.12622222c0 3.41333333-3.41333333 6.71288889-3.41333333 6.71288889l-6.82666667 6.71288889c-3.41333333 3.41333333-3.41333333 3.41333333-6.82666667 3.41333333h-771.41333333c-6.82666667 0-13.53955555-3.41333333-20.36622223-6.71288889-6.82666667-3.41333333-6.82666667-10.12622222-6.82666666-16.83911111 0-3.41333333 0-6.71288889 3.41333333-10.12622222 0-3.41333333 3.41333333-6.71288889 3.41333333-6.71288889l6.82666667-6.71288889c0-3.41333333 3.41333333-3.41333333 6.82666667-3.41333333h34.01955556v-145.18044445h-78.16533334c-6.82666667 0-10.24 3.41333333-16.95288889 6.71288889-3.41333333 3.41333333-6.82666667 10.12622222-6.82666667 16.83911111V610.19022222c0 3.41333333 0 6.71288889 3.41333334 10.12622223 0 3.41333333 3.41333333 3.41333333 3.41333333 6.71288888 3.41333333 0 6.82666667 3.41333333 10.24 3.41333334s6.82666667 3.41333333 10.24 3.41333333h859.70488889c3.41333333 0 6.82666667 0 10.24-3.41333333 3.41333333 0 6.82666667-3.41333333 6.82666667-3.41333334 0-3.41333333 0-6.71288889 3.41333333-6.71288888v-459.09333334zM821.248 572.98488889c-13.53955555 0-27.19288889-3.41333333-40.73244445-10.12622222-13.53955555-6.71288889-20.36622222-16.83911111-27.19288888-26.96533334-6.82666667-13.53955555-10.24-23.66577778-10.24-40.50488888 0-20.25244445 6.82666667-40.50488889 23.77955555-57.344 16.95288889-16.83911111 34.01955555-23.66577778 57.79911111-23.66577778 13.53955555 0 27.19288889 3.41333333 40.73244445 10.12622222 13.53955555 6.71288889 20.36622222 16.83911111 27.19288889 26.96533333 6.82666667 13.53955555 10.24 23.66577778 10.24 40.50488889 0 20.25244445-6.82666667 40.50488889-23.77955556 57.344-17.06666667 16.95288889-34.01955555 23.66577778-57.79911111 23.66577778z m27.19288889-104.56177778c-6.82666667-6.71288889-16.95288889-10.12622222-27.19288889-10.12622222-10.24 0-20.36622222 3.41333333-27.19288889 10.12622222s-10.24 16.83911111-10.24 26.96533334c0 10.12622222 3.41333333 20.25244445 10.24 26.96533333 6.82666667 6.71288889 16.95288889 10.12622222 27.19288889 10.12622222 10.24 0 20.36622222-3.41333333 27.19288889-10.12622222s10.24-16.83911111 10.24-26.96533333c3.29955555-10.12622222-0.11377778-20.25244445-10.24-26.96533334z"  horiz-adv-x="1024" />
      
      <glyph glyph-name="mobile" unicode="&#59334;" d="M771.60789333 888.62208H240.54215111c-15.45102222 0-27.95292445-12.50076445-27.95292444-27.95178667v-950.32888888c0-15.42144 12.50076445-27.95178667 27.95292444-27.95178667H771.60675555c15.42257778 0 27.95178667 12.53034667 27.95178667 27.95178667v950.32888888c-0.00113778 15.45102222-12.52920889 27.95178667-27.95178667 27.95178667z m-298.15466666-67.09248h130.44963555v-33.51893333H473.45436445v33.51893333z m-48.91306667 0c9.00664889 0 16.32483555-7.50705778 16.32483555-16.75946667 0-9.25468445-7.31591111-16.76174222-16.32369777-16.76174222-9.00664889 0-16.29525333 7.50705778-16.29525333 16.76060444 0 9.25468445 7.28860445 16.75946667 16.29525333 16.75946667z m81.53315555-905.59374222c-36.02887111 0-65.20718222 30.02595555-65.20718222 67.06744889 0 37.06538667 29.17831111 67.09248 65.20832 67.09248 36.03114667 0 65.21059555-30.02709333 65.21059556-67.09248 0-37.04263111-29.17944889-67.06744889-65.21059556-67.06744889z m228.27463112 167.70616889H277.79982222V754.46101333h456.54926223v-670.81898666z"  horiz-adv-x="1024" />
      
      <glyph glyph-name="phone" unicode="&#59336;" d="M532.67192686 188.60346184000002h-76.15830297c-11.9676981 0-22.30304508-11.9676981-22.30304508-27.74380452 0-15.77487351 10.33534698-27.7425716 22.30304508-27.74257161h76.15830297c11.9676981 0 22.30304508 11.9676981 22.30304508 27.74257161s-10.33534698 27.7438045-22.30304508 27.74380452z m0 139.80396885h-76.15830297c-11.9676981 0-22.30304508-11.9676981-22.30304508-27.7438045 0-15.77487351 10.33534698-27.7425716 22.30304508-27.74257161h76.15830297c11.9676981 0 22.30304508 11.9676981 22.30304508 27.74257161 0.54370608 15.77610641-10.33534698 27.7438045-22.30304508 27.7438045z m0 140.34767494h-76.15830297c-11.9676981 0-22.30304508-11.9676981-22.30304508-27.7438045s10.33534698-27.7425716 22.30304508-27.7425716h76.15830297c11.9676981 0 22.30304508 11.9676981 22.30304508 27.7425716s-10.33534698 27.7438045-22.30304508 27.7438045zM684.98729989 188.60346184000002h-76.15830296c-11.9676981 0-22.30304508-11.9676981-22.30304508-27.74380452s10.33534698-27.7425716 22.30304508-27.74257161h76.15830296c11.9676981 0 22.30304508 11.9676981 22.30304508 27.74257161s-10.33534698 27.7438045-22.30304508 27.74380452z m0 139.80396885h-76.15830296c-11.9676981 0-22.30304508-11.9676981-22.30304508-27.7438045 0-15.77487351 10.33534698-27.7425716 22.30304508-27.74257161h76.15830296c11.9676981 0 22.30304508 11.9676981 22.30304508 27.74257161 0 15.77610641-10.33534698 27.7438045-22.30304508 27.7438045z m0 140.34767494h-76.15830296c-11.9676981 0-22.30304508-11.9676981-22.30304508-27.7438045s10.33534698-27.7425716 22.30304508-27.7425716h76.15830296c11.9676981 0 22.30304508 11.9676981 22.30304508 27.7425716s-10.33534698 27.7438045-22.30304508 27.7438045z m152.31537304-280.15164379H761.14313707c-11.9676981 0-22.30304508-11.9676981-22.30304508-27.74380452s10.33534698-27.7425716 22.30304508-27.74257161h74.52595185c13.59881633 0 24.47910227 11.9676981 24.47910227 27.74257161s-10.87905305 27.7438045-22.84675116 27.74380452z m0 139.80396885H761.14313707c-11.9676981 0-22.30304508-11.9676981-22.30304508-27.7438045 0-15.77487351 10.33534698-27.7425716 22.30304508-27.74257161h74.52595185c13.59881633 0 24.47910227 11.9676981 24.47910227 27.74257161-0.54247317 15.77610641-10.87905305 27.7438045-22.84675116 27.7438045z m0 140.34767494H761.14313707c-11.9676981 0-22.30304508-11.9676981-22.30304508-27.7438045s10.33534698-27.7425716 22.30304508-27.7425716h74.52595185c13.59881633 0 24.47910227 11.9676981 24.47910227 27.7425716s-10.87905305 27.7438045-22.84675116 27.7438045z m-368.82135094 117.5009238h366.64529375c22.30304508 0 39.7115026 17.40722463 39.71150261 39.71150258v103.89964169c0 22.30304508-17.40845752 39.7115026-39.71150261 39.71150259H468.48132199c-22.30304508 0-39.7115026-17.40845752-39.71150259-39.71150259v-103.90087458c0-22.30304508 17.40845752-39.7115026 39.71150259-39.7115026z m4.89582045 139.25902989h357.941065v-94.65293973H473.37714244v94.65293973zM973.84193956 896.32630202H318.34200615c-20.67192686 0-36.44680037-17.40722463-36.44680038-39.7115026l1.63111822-799.11231059c0-22.30304508 15.77610641-39.71026971 36.44680038-39.71026971h34.81568214c-5.98446549-56.03008218-53.31031891-98.46134804-109.88534007-98.46134804-58.20490648 0-103.90087458 43.51867801-109.88410717 98.46134804h53.85402499c22.30304508 0 39.7115026 17.40845752 39.7115026 39.71150261v799.11231059c0 22.30304508-17.40845752 39.7115026-39.7115026 39.71150259H52.33288473c-22.30304508 0-39.71026971-17.40845752-39.7102697-39.71150259v-799.11231059c0-22.30304508 17.40845752-39.7115026 39.71150259-39.71150261h46.23844128c6.52693867-75.61336399 69.62889851-134.90814841 146.33214044-134.90814841 77.24448221 0 140.34644205 59.29478442 146.33090754 134.90814841h584.78238987c19.03957574 0 36.44680037 17.40845752 36.44680038 39.71150261v799.11231059c-0.54247317 22.30304508-17.9509307 39.7115026-38.62285757 39.71150259zM56.14129303 61.310897129999944v790.40808183h127.83627077v-790.40808183H56.14129303z m911.71741394 0H328.13364706l-2.1760572 790.40808183h641.35741103v-790.40808183z"  horiz-adv-x="1024" />
      
      <glyph glyph-name="tel" unicode="&#59335;" d="M749.076875-114.61154166999995c-65.03371875 0-148.98023438 43.32234375-207.9590625 79.67826562-78.97345313 48.68423438-164.07857812 115.99875-239.60967188 189.59948438l-0.28153124 0.26184375-23.97445313 23.9990625c-73.5800625 75.5055-140.91032812 160.610625-189.60440625 239.60376562C51.32135938 477.49494271 8 561.45720833 8 626.47025521c0 69.59334375 49.762125 143.4549375 71.166375 171.98507812C95.84759375 820.71598958 154.1718125 893.33333333 203.74296875 893.33333333c20.3608125 0 42.26807813-13.32548438 71.0600625-43.1904375 25.48546875-26.42357812 49.91371875-59.24657812 65.95509375-82.14707812 21.49382813-30.74203125 41.41560938-62.90648437 56.0266875-90.59990625 23.68603125-44.85304687 26.40782813-64.0749375 26.40782813-74.65795313 0-21.317625-11.13820312-39.81403125-33.09075-54.95273437-14.46440625-9.96876563-31.81598437-17.48840625-48.62320313-24.74029688-11.32425-4.88348438-29.381625-12.70532812-36.28603125-18.20896875 2.38907813-10.18532812 12.90614063-34.79371875 41.32504688-76.51251562 26.47378125-38.87198437 60.71920312-81.00914063 91.65810937-112.75917188 31.77070312-30.94382812 73.8871875-65.16365625 112.7581875-91.657125 41.698125-28.39429687 66.3075-38.91726562 76.51842188-41.32603125 5.4928125 6.87979688 13.3048125 24.97654688 18.2030625 36.28603125 7.28240625 16.80328125 14.7774375 34.15978125 24.74521875 48.62320313 15.1396875 21.95353125 33.63609375 33.08582812 54.95371875 33.08582812 10.55840625 0 29.79998438-2.74148438 74.65303125-26.40782813 27.69834375-14.60517187 59.8618125-34.50726563 90.60975-56.02668749 22.87490625-16.01578125 55.71857813-40.46864062 82.14609375-65.9295 29.86101563-28.81265625 43.1865-50.7504375 43.1865-71.08565625 0-49.56525-72.61242187-107.86978125-94.8976875-124.57265625-28.51045313-21.40326562-102.37696875-71.16046875-171.9703125-71.16046875zM343.19051562 202.2006927c72.44114062-70.58067187 153.8184375-134.99915625 229.15659375-181.41046875 73.02585937-45.00365625 137.44828125-70.82282813 176.73271875-70.82282812 34.9965 0 79.844625 16.3288125 128.401875 52.11084375 21.30384375 15.68896875 40.67142188 33.17146875 54.5855625 49.21875 13.03804687 15.04814063 17.81029687 24.86039062 19.02009375 28.8264375-5.0203125 10.83107812-29.93090625 39.63782813-99.78609375 87.82790625-27.39121875 18.88326562-50.68546875 36.2604375-74.73965625 48.90473437-30.19767188 15.88584375-42.77109375 23.66142187-45.64546875 24.105375-1.11825-0.76584375-4.39917188-3.528-9.39782812-11.899125-5.58928125-9.379125-10.97676563-21.8019375-16.17820313-33.831-6.39548437-14.79220312-13.00753125-30.11203125-21.14142187-42.4659375-13.20440625-20.09207813-34.46198438-35.32725-53.23992188-35.32725h-1.05328125c-9.13696875 0.2008125-42.00525 5.835375-117.4910625 57.26109375-41.6784375 28.39921875-86.94492188 65.228625-121.08403125 98.49164063l-0.52959375 0.52860938c-33.28171875 34.13910937-70.09242187 79.40559375-98.49065625 121.0584375-51.43064063 75.51140625-52.02028125 103.31507812-52.21125 112.47764062-0.41835937 19.10573437 14.70065625 40.64484375 35.01028125 54.07565625 12.39820313 8.21460938 27.8499375 14.9034375 42.77207813 21.34321875 12.00445312 5.19159375 19.41285938 10.584 28.79296875 16.17328125 8.36521875 4.99373438 11.127375 8.27957813 11.89321875 9.3988125-0.45379688 2.87240625-3.19528125 10.43240625-19.06045313 40.5995625-12.64429688 24.03942187-30.02146875 52.3726875-48.91064062 79.77867188-48.2304375 69.92114063-77.04210937 94.80810938-87.86235938 99.847125-3.96703125-1.2245625-13.78420312-5.977125-28.8579375-19.0141875-16.041375-13.8954375-33.50320312-33.287625-49.18725-54.58064063-35.78203125-48.56315625-52.13053125-93.41128125-52.13053125-128.40679687 0-39.29034375 20.77326563-103.70784375 65.77790625-176.74354688 46.431-75.3283125 110.8485-151.67053125 181.4045625-224.11167188l23.44978125-23.41828125z"  horiz-adv-x="1024" />
      
      <glyph glyph-name="phone1" unicode="&#59339;" d="M916.173 440.474c-53.3 0-149.914 19.2-180.02 49.305-18.483 18.483-22.835 41.626-26.367 60.263-4.352 22.937-6.964 29.747-16.999 34.099-46.182 19.865-112.435 31.232-181.811 31.232-68.608 0-134.144-11.213-179.814-30.72-9.933-4.25-12.493-11.06-16.743-33.946-3.481-18.688-7.782-41.933-26.214-60.365-16.794-16.793-51.968-28.364-78.49-35.072-34.201-8.652-70.86-13.67-100.505-13.67-33.997 0-56.986 6.451-70.247 19.763-20.019 20.02-32.819 47.411-35.072 75.11-1.894 23.348 2.611 57.959 34.816 90.215 52.327 52.326 122.675 93.133 209.203 121.242 79.565 25.907 170.087 39.577 261.837 39.577 92.365 0 183.655-13.824 263.987-40.038 87.296-28.467 158.362-69.683 211.15-122.522 53.76-53.76 40.447-125.081 0.614-164.915-13.159-13.158-35.84-19.558-69.325-19.558zM510.976 666.573c77.158 0 148.89-12.595 202.035-35.38 36.506-15.667 42.65-48.025 47.104-71.577 2.663-14.08 4.967-26.266 12.288-33.587 12.903-12.903 87.347-34.355 143.821-34.355 24.627 0 32.41 4.198 33.382 4.812 15.872 16.077 35.738 55.604-0.87 92.263-92.416 92.416-256.512 147.558-438.989 147.558-180.992 0-343.5-54.528-434.841-145.817-14.746-14.746-21.504-31.54-20.02-49.87 1.28-15.462 8.704-31.436 19.968-42.802 0.973-0.615 8.858-5.018 34.304-5.018 56.218 0 130.1 21.043 142.797 33.74 7.22 7.22 9.472 19.406 12.083 33.486 4.404 23.654 10.394 56.064 46.95 71.68 52.532 22.476 123.546 34.816 199.937 34.816zM844.8-25.600000000000023H179.2c-34.355 0-66.048 13.517-89.242 38.042S55.04 69.37599999999998 56.934 103.67999999999995c0.205 3.942 6.042 97.331 65.024 191.437 34.919 55.705 81.204 100.096 137.524 131.942C329.165 466.432 414.106 486.4 512 486.4s182.835-19.968 252.518-59.34c56.372-31.847 102.656-76.238 137.524-131.943 58.982-94.157 64.819-187.546 65.024-191.437 1.894-34.304-9.83-66.714-33.024-91.238S879.155-25.600000000000023 844.8-25.600000000000023zM512 435.2c-159.59 0-275.866-55.706-345.549-165.53-52.736-83.097-58.317-168.038-58.368-168.908-1.126-20.07 5.683-38.964 19.098-53.146s31.897-22.016 52.07-22.016h665.6c20.122 0 38.605 7.834 52.07 22.016s20.225 33.075 19.098 53.197c-0.051 0.819-5.683 85.76-58.368 168.857-69.734 109.824-186.01 165.53-345.549 165.53zM512 76.79999999999995c-84.685 0-153.6 68.915-153.6 153.6S427.315 384 512 384s153.6-68.915 153.6-153.6S596.685 76.79999999999995 512 76.79999999999995z m0 256c-56.474 0-102.4-45.926-102.4-102.4S455.526 128 512 128c56.474 0 102.4 45.926 102.4 102.4S568.474 332.79999999999995 512 332.79999999999995z"  horiz-adv-x="1024" />
      
      <glyph glyph-name="skype" unicode="&#59340;" d="M945.2470625 327.86797394999996a509.3235 509.3235 0 0 1 4.51532812 67.6501875c0 257.67492187-198.02671875 467.43932812-441.73631249 467.43932813a455.6278125 455.6278125 0 0 1-61.2871875-4.3785A265.32942187 265.32942187 0 0 1 315.81701563 893.33333333C163.43379687 893.33333333 39.51575 762.1801302 39.51575 601.10389583a304.43076562 304.43076562 0 0 1 31.87701563-136.119375 503.03432813 503.03432813 0 0 1-4.90317188-69.45651562c0-257.69559375 198.02573438-467.46 441.7363125-467.46a408.11596875 408.11596875 0 0 1 51.44835938 3.14999999A264.59409375 264.59409375 0 0 1 708.29914062-114.66666667000004c152.40389063 0 276.14376563 131.13154687 276.14376563 292.21959375a305.1129375 305.1129375 0 0 1-39.2371875 150.294375z m-86.380875-309.57609374c-40.1821875-42.53484375-93.7321875-66.0751875-150.703875-66.07518751a203.4230625 203.4230625 0 0 0-117.52453125 37.52634376l-15.66534375 11.01515625-18.65784375-2.59382813a347.41645312 347.41645312 0 0 0-48.11034375-3.15 357.12928125 357.12928125 0 0 0-147.31171875 31.49901562 377.78245313 377.78245313 0 0 0-120.306375 85.81485938 401.62696875 401.62696875 0 0 0-81.11053125 127.37320313 416.50579688 416.50579688 0 0 0-29.78817187 155.87971875 424.32764063 424.32764063 0 0 0 4.70432812 63.48135937l2.65584375 17.94417188-8.30517187 15.98034375a236.86425 236.86425 0 0 0-26.01801563 108.14835937c0 60.29985937 22.05 116.778375 62.4211875 159.49139063 40.1821875 42.52401562 93.74203125 66.05353125 150.71371875 66.05353125a203.88473438 203.88473438 0 0 0 103.94704688-28.7161875l15.0255-8.9775 17.17734375 2.56134375a351.74278125 351.74278125 0 0 0 56.20584375 4.36865625 357.16078125 357.16078125 0 0 0 147.3215625-31.5 377.37295312 377.37295312 0 0 0 120.33885937-85.83553125 401.239125 401.239125 0 0 0 81.12135938-127.35154688 416.57864062 416.57864062 0 0 0 29.79801562-155.90039062 433.18898438 433.18898438 0 0 0-4.52517187-62.2636875l-2.835-19.5615 10.03767187-16.99917188a235.39457813 235.39457813 0 0 0 32.02467188-118.920375c-0.17817188-60.0586875-22.44867187-116.778375-62.63085938-159.28171875zM574.06976563 439.02852083l-89.4166875 21.36684375c-48.67734375 11.60282813-73.19320313 29.34717187-73.19320313 53.69667187 0 17.35551562 6.78234375 31.49901562 20.1796875 42.3241875s32.445 16.13784375 56.76201562 16.13784375c28.665 0 52.06851563-6.39351563 69.80203125-19.35084375 5.25065625-3.60084375 16.61132813-15.39267188 33.96782813-35.1106875 11.31834375-12.79982812 23.58267187-19.39317188 36.5911875-19.39317187 13.39734375 0 25.09467187 4.01034375 34.53384375 11.9896875 9.61734375 7.95965625 14.34234375 18.9 14.34234375 32.71767187q0 47.62701563-59.416875 82.62351563-56.02767188 33.20001562-122.79585938 33.1261875-76.96335937 0-127.87621875-34.52301563-59.4286875-40.70784375-59.4286875-117.16720312 0-104.78671875 114.86671875-135.73054688l120.74835938-32.36034375c30.36501563-8.18015625 45.6316875-25.5346875 45.6316875-51.6796875 0-17.577-7.35032812-32.36034375-22.05-44.68767187-16.05417188-13.78617188-37.3471875-20.7781875-63.76485938-20.7781875q-46.12584375 0-74.12835937 23.35134375c-4.347 3.15-16.2225 17.3446875-35.69934375 42.7021875-12.08517187 15.55017188-25.83984375 23.35134375-40.95 23.35134375q-19.50735938 0-32.26485938-13.18767188c-8.51484375-8.76684375-12.65217188-19.94934375-12.65217187-33.71484375q0-47.00685937 47.53251562-82.63335937c36.7486875-28.5271875 86.39170313-42.69234375 148.27739063-42.69234375q93.6376875 0 144.48754687 44.90817187 48.12117187 41.29551563 48.12117188 111.79153125c0.55617187 75.45135937-40.37217187 123.15121875-122.21803125 142.92239063z m0 0"  horiz-adv-x="1024" />
      
      <glyph glyph-name="whatsapp1" unicode="&#59329;" d="M805.37687225 181.63695524000002c-12.14717273-34.37236589-60.42972502-62.84833242-98.93449223-71.1643216-26.35956225-5.54399311-60.73192814-10.03076944-176.55138507 38.00076722C399.80894539 202.35211813 219.1763465 394.32470422 219.1763465 522.08756924c0 65.01592322 37.4967682 140.76742739 103.06787794 140.76742739 31.54918134 0 38.50476722-0.60538964 48.88695754-25.5533611 12.14717273-29.3323718 41.78174766-101.60608303 45.3107281-109.01448042 14.56479577-30.39155831-14.81876353-48.18214603-36.1373483-74.69231765-6.80399212-7.96358391-14.51557702-16.58177719-5.89639936-31.39955635 8.56700578-14.51459264 38.20256409-62.7981293 81.74830978-101.55588089 56.24613619-50.14794094 101.85808303-66.12432848 118.18786022-72.92831962 12.14618836-5.03999409 26.660781-3.88040133 35.53097428 5.59419623 11.23958095 12.14717273 25.19997047 32.30714911 39.41334338 52.21414209 10.02978506 14.21337389 22.78037967 15.97638755 36.13636392 10.93639247 9.02178605-3.12440231 123.68165119-56.39674556 128.51984841-64.91453259 3.57819919-6.19860248 3.57819919-35.53195767-8.56799016-69.90432356M512.10040625 893.33333333h-0.252C233.99314128 893.33333333 8.00059555 667.2896001 8.00059555 389.33392888c0-110.22329194 35.53195767-212.43476461 95.96168367-295.3416818L41.16414992-93.39611055l193.68539663 61.89053654a500.11801875 500.11801875 0 0 1 277.2508597-83.15990157c277.85428059 0 503.89702945 226.04373323 503.89702945 503.99940446S789.95468684 893.33333333 512.10040625 893.33333333"  horiz-adv-x="1024" />
      
      <glyph glyph-name="address1" unicode="&#59331;" d="M512 893.33333333c211.152375 0 382.08515625-165.90557812 382.08515625-382.08515625 0-140.76759375-180.9871875-397.16578125-296.61876563-588.20934375-30.16420313-50.274-100.54898437-50.274-135.74039062 0C336.04001563 114.08239583 129.91484375 345.34358333 129.91484375 511.24817708 129.91484375 727.42775521 300.847625 893.33333333 512 893.33333333z m0-211.152375c-80.4391875 0-140.76759375-60.32939063-140.76759375-140.76759375 0-80.4391875 60.32840625-140.76857812 140.76759375-140.76857812 75.411 0 140.76759375 60.32939063 140.76759375 140.76857812 0 80.43820313-65.35659375 140.76759375-140.76759375 140.76759375z"  horiz-adv-x="1024" />
      
      <glyph glyph-name="contact1" unicode="&#59332;" d="M512 892.70760522c145.35121947 0 263.9078084-118.56930314 263.9078084-263.92167845 0-145.36508952-118.55658892-263.92167845-263.9078084-263.92167844-145.33734941 0-263.92167845 118.55658892-263.92167845 263.92167844 0 145.35237531 118.58432903 263.92167845 263.92167845 263.92167845zM967.73641933-114.87083005H56.26242484C64.64224846 100.73220741 265.45518617 273.28722398 512 273.28722398s447.37162159-172.55501658 455.73641933-388.15805403z"  horiz-adv-x="1024" />
      
      <glyph glyph-name="email1" unicode="&#59333;" d="M514.286 351.79100000000005L42.96 730.49c2.578 0.459 4.87 1.466 7.466 1.466h927.771c2.614 0 4.944-1.007 7.485-1.466L514.286 351.79100000000005z m504.013-239.722l-334.645 322.8 334.15 268.51c1.343-3.865 2.542-7.802 2.542-12.073v-569.354c0-3.458-1.128-6.602-2.047-9.883z m-1008.01-0.036c-0.794 3.248-2.083 6.388-2.083 9.918V691.306c0 4.325 1.289 8.208 2.578 12.126l334.31-268.562L10.29 112.03300000000002z m967.908-30.71H50.426c-3.601 0-6.92 1.164-10.219 2.011L377.64 408.66l123.18-98.982c3.866-3.175 8.704-4.694 13.468-4.694 4.817 0 9.603 1.519 13.466 4.694l123.356 99.035 337.398-325.379c-3.32-0.848-6.637-2.012-10.31-2.012z"  horiz-adv-x="1024" />
      
      <glyph glyph-name="skype1" unicode="&#59337;" d="M778.64484357 274.04564426q0 32.92731042-12.83169544 60.24997228T733.88140029 379.39091399999995t-48.08198521 32.26360201-54.31346947 22.38172167-57.63201143 15.15467479l-68.47258168 15.81838315q-19.7637608 4.609086-28.98193282 6.93206537t-23.04543002 7.55890103-19.76376077 10.5455888-10.87744297 13.827258-4.94094021 19.7637608q0 50.69994606 94.79968095 50.69994604 28.31822443 0 50.69994605-7.89075525t35.54527131-18.76819819 25.03655516-22.04986745 26.32709924-19.10005241 31.59989367-7.89075524q30.93618526 0 49.70438348 21.05430487t18.76819821 50.69994607q0 36.20897965-36.87268803 65.52276663t-93.5091369 44.4315891-119.83623612 15.15467478q-44.76344329 0-86.90892572-10.21373456t-78.68631628-30.9361853-58.5907013-57.3001572-22.04986743-84.62281906q0-40.15435727 12.49984125-70.13185265t36.87268804-49.70438348 52.6910712-31.93174785 67.80887332-21.38615907l96.12709771-23.7091384q59.25440968-14.4909664 73.74537609-23.7091384 21.05430486-13.16354962 21.05430486-39.4906489 0-25.66339088-26.32709924-42.47733662t-69.1362901-16.77707307q-33.59101881 0-60.24997226 10.54558878t-42.80919083 25.36840938-29.97749536 29.64564117-30.27247688 25.36840939-35.54527128 10.54558877q-32.92731042 0-49.70438348-19.7637608T253.799002 225.4474414q0-60.58182645 80.34558723-103.72287143t191.59048707-43.14104502q48.08198523 0 92.18172009 12.16798707t80.67744144 35.21341707 58.2588471 61.57738903 21.71801326 86.5770715z m239.04563657-142.88166616q0-104.68156136-74.07723027-178.75879161T764.85445824-121.67204378999998q-85.58150894 0-154.09096331 52.69107119-50.69994606-10.54558877-98.78193127-10.54558877-94.17284526 0-180.08620839 36.54083385T183.74089472 55.79620373t-98.78193128 148.15446056-36.54083385 180.0862084q0 48.08198523 10.5455888 98.78193127-52.69107123 68.4725817-52.69107123 154.09096332 0 104.68156136 74.07723029 178.75879161t178.75879161 74.07723029q85.58150894 0 154.09096334-52.6910712 50.69994606 10.54558877 98.78193126 10.54558875 94.17284526 0 180.0862084-36.54083384t148.15446053-98.78193125 98.78193128-148.15446056 36.54083383-180.08620839q0-48.08198523-10.54558877-98.78193126 52.69107123-68.4725817 52.69107121-154.09096333z"  horiz-adv-x="1024" />
      
      <glyph glyph-name="fax1" unicode="&#59338;" d="M192 773.41798941h640v-62.976H192V773.41798941z m-4.928-128h645.312v-64H187.072v64zM897.536 581.28998941V901.41798941H127.872v-320.128H0v-511.744h127.872V-122.58201058999998h769.664V69.54598940999995H1024V581.28998941H897.536z m-64.832-638.72h-640.64V69.54598940999995h640.64v-126.976z m-640.64 513.92V835.94598941h640.64v-379.52h-640.64z"  horiz-adv-x="1024" />
      
      <glyph glyph-name="qq" unicode="&#59342;" d="M105.11942188 311.79411458000004C70.77851562 223.13834896000003 64.97267188 138.61302082999998 92.72121875 122.96834894999995c19.18842187-10.922625 49.0021875 14.07065625 77.14546875 59.432625 11.11851563-49.69125 38.57175-94.26571875 77.93198437-130.2800625-41.131125-16.53159375-68.09217188-43.68951563-68.09217187-74.29078124 0-50.47875 72.71676562-91.21710938 162.45632812-91.21710938 80.9825625 0 147.99290625 33.06220313 160.48954688 76.55484375h19.1874375c12.69351562-43.49264062 79.60542188-76.55484375 160.6854375-76.55484375 89.83898437 0 162.4573125 40.737375 162.4573125 91.216125 0 30.60225-26.96203125 57.46485938-68.09217188 74.29078125 39.162375 36.01532813 66.81248438 80.58979688 77.83354688 130.28203125 28.04385938-45.36295312 57.76017187-70.25779688 77.04703125-59.33517188 27.846 15.74310937 22.23703125 100.17-12.497625 188.82773438-27.15792187 69.370875-63.86034375 120.5386875-91.90420313 132.05095312a142.66153125 142.66153125 0 0 1-18.00717187 85.31184375c0.8859375 13.28414062-1.575 26.56828125-7.08454688 38.67117188C795.192875 748.48944271 687.14984375 892.05463021 512.2953125 892.05463021S229.2993125 748.48944271 222.21476562 567.82906771a82.47782813 82.47782813 0 0 1-7.18298437-38.8670625 144.82715625 144.82715625 0 0 1-18.49935937-71.93025c0-4.52615625 0.196875-9.0523125 0.4921875-13.38257813-27.84698438-11.31539062-64.84471875-62.48320313-91.90518751-131.85407812z m-1e-8 0"  horiz-adv-x="1024" />
      
      <glyph glyph-name="tel1" unicode="&#59341;" d="M60.44070092 686.69036938s79.4223173 164.42899298 213.61131422 0c133.8946688-164.59732111 0-212.85531422 0-212.85531521s-89.29166006-82.31933292-19.90799705-135.57598129c69.46733391-53.08733686 238.43331127-198.28065994 238.43331127-198.28065994s66.94733489-86.93998819 138.85099594-24.1073408c89.41766006 72.36533391 124.19365514 84.58733194 193.61964628 33.80933883 121.21099889-88.07398819 159.05332209-176.65099102-24.56999705-246.7493093-203.65731619-96.76700283-566.07362536 237.08963939-566.07362536 237.08963939S-123.18163384 473.83505417 60.44070092 686.69036938z m461.78796825-85.09231632s-66.90500677-6.88767089-54.72533686 61.06766302c5.62767089 30.91232419 59.63933588 41.07599409 109.28332899 26.33399606 49.93733686-14.44766991 235.95465502-94.24700283 243.47331028-297.5273024 0 0-13.77632616-57.03467962-57.413664-45.77933785-46.87199311 12.18065428-34.52399508 98.61565809-37.16999508 115.457328-2.35265625 16.88399803-66.77999114 147.67197933-203.44764333 140.44765317z m128.98263853 176.56731915s-81.89998917-8.31599902-66.77999114 74.54966203c6.71934277 38.00966695 72.95300578 50.39999311 133.93699692 32.6763232 60.77333588-17.85065428 288.62264813-115.54198425 297.65231902-364.2226373 0 0-19.52999705-77.61598917-69.63467766-56.44799212-43.84897847 18.81632517-46.07465034 123.77332702-48.97265034 144.4796512-3.31734375 20.74766892-78.66533292 177.91099102-246.2019968 168.96499299z"  horiz-adv-x="1025" />
      
      <glyph glyph-name="wechat" unicode="&#59343;" d="M820.82004284 560.12765601h42.27063744C827.86514909 729.21020577 644.69238685 856.02211809 433.33919966 856.02211809 200.85069372 856.02211809 10.63282525 701.02978081 10.63282525 496.72169984c0-112.72169984 63.40595617-211.3531872 169.08254976-281.8042496l-42.27063744-126.81191232 147.94723103 70.4510624c56.36084992-7.04510625 98.63148736-21.13531873 147.94723106-21.13531871h42.27063743c-7.04510625 28.18042496-14.09021248 56.36084992-14.09021248 84.54127488C461.51962461 412.18042496 616.5119619 560.12765601 820.82004284 560.12765601zM595.37664317 672.84935583c35.22553119 0 56.36084992-21.13531873 56.36084991-49.31574367 0-28.18042496-21.13531873-49.31574369-56.36084991-49.31574367s-63.40595617 21.13531873-63.40595616 49.31574367c0 28.18042496 28.18042496 49.31574369 63.40595616 49.31574367z m-302.93956833-105.67659359c-35.22553119 0-63.40595617 21.13531873-63.40595616 49.31574369 0 28.18042496 35.22553119 49.31574369 63.40595616 49.31574367 35.22553119 0 56.36084992-21.13531873 56.36084994-49.31574367 0-28.18042496-21.13531873-49.31574369-56.36084994-49.31574369z m887.68338625-331.11999329c0 154.99233728-154.99233728 281.8042496-331.11999329 281.80424962-190.21786849 0-331.11999327-126.81191232-331.11999327-281.80424962s147.94723105-281.8042496 331.11999327-281.8042496c42.27063744 0 77.49616863 7.04510625 119.76680609 21.13531873l105.67659359-56.36084992-28.18042495 98.63148736c70.4510624 56.36084992 133.85701857 133.85701857 133.85701856 218.39829343z m-443.84169313 49.31574369c-21.13531873 0-42.27063744 21.13531873-42.27063744 35.22553119 0 21.13531873 21.13531873 35.22553119 42.27063744 35.22553121 28.18042496 0 49.31574369-21.13531873 49.31574369-35.22553121s-21.13531873-35.22553119-49.31574369-35.22553119z m218.39829345 0c-21.13531873 0-42.27063744 21.13531873-42.27063744 35.22553119 0 21.13531873 21.13531873 35.22553119 42.27063744 35.22553121 28.18042496 0 49.31574369-21.13531873 49.31574368-35.22553121s-21.13531873-35.22553119-49.31574368-35.22553119z m0 0"  horiz-adv-x="1190" />
      
      <glyph glyph-name="phone2" unicode="&#59344;" d="M947.993 138.24c0-163.84-76.8-163.84-435.2-163.84s-435.2 0-435.2 163.84c0 174.08 194.56 527.36 435.2 527.36 235.52 0 435.2-353.28 435.2-527.36z m-435.2 450.56c-102.4 0-184.32-81.92-184.32-179.2s81.92-184.32 184.32-184.32 184.32 81.92 184.32 184.32-81.92 179.2-184.32 179.2z m-378.88-133.12c76.8 122.88 204.8 250.88 378.88 250.88 174.08 0 317.44-143.36 378.88-250.88 35.84-56.32 97.28-46.08 122.88 0 20.48 30.72 71.68 337.92-501.76 337.92S-9.447 481.28 11.033 455.68c40.96-56.32 107.52-25.6 122.88 0z m0 0"  horiz-adv-x="1025" />
      
      <glyph glyph-name="message" unicode="&#59354;" d="M525.258 544.92c-39.64 0-71.773-32.75-71.773-73.142s32.132-73.141 71.773-73.141 71.774 32.75 71.774 73.14-32.143 73.142-71.774 73.142z m-218.817 0c-39.98 0-72.38-32.75-72.38-73.142s32.41-73.141 72.38-73.141 72.38 32.75 72.38 73.14-32.41 73.142-72.38 73.142zM848.454 896H204.798C75.538 896 0 820.462 0 691.202v-409.596c0-129.26 75.538-204.798 204.798-204.798H351.08V-128l258.437 204.808h238.936c129.27 0 204.798 75.538 204.798 204.798V691.202C1053.252 820.462 977.725 896 848.454 896z m87.768-643.657a58.515 58.515 0 0 0-58.515-58.515H585.14L438.86 76.808v117.02H175.546a58.515 58.515 0 0 0-58.516 58.515V720.454a58.515 58.515 0 0 0 58.516 58.516h702.16a58.515 58.515 0 0 0 58.516-58.516zM746.966 544.91c-39.888 0-72.226-32.75-72.226-73.141s32.338-73.142 72.226-73.142 72.226 32.75 72.226 73.142-32.338 73.151-72.226 73.151z"  horiz-adv-x="1053" />
      
      <glyph glyph-name="calendar" unicode="&#59361;" d="M512-124.93700000000001c-144.475 3.308-264.584 52.834-360.328 148.61C55.928 119.41499999999996 6.371 239.524 3.062 384c3.309 144.475 52.835 264.584 148.61 360.328C247.416 840.072 367.525 889.629 512 892.938c144.475-3.309 264.584-52.835 360.328-148.61 95.744-95.744 145.301-215.853 148.61-360.328-3.309-144.475-52.835-264.584-148.61-360.328-95.744-95.744-215.853-145.301-360.328-148.61zM827.35 68.64999999999998c83.975 83.974 127.044 188.434 130.002 313.887-2.958 128.38-46.027 232.839-130.002 316.813-83.974 83.975-188.434 127.044-313.887 130.002-128.38-2.958-232.839-46.027-316.813-130.002-83.975-83.974-127.044-188.434-130.002-313.887 2.958-128.38 46.027-232.839 130.002-316.813C280.306-15.006999999999948 384.289-58.07600000000002 512-61.28800000000001c127.711 3.212 231.694 46.281 315.35 129.938zM512 384h222.66a31.809 31.809 0 0 0 0-63.617H480.191a31.809 31.809 0 0 0-31.808 31.808V670.277a31.809 31.809 0 0 0 63.617 0V384z"  horiz-adv-x="1024" />
      
      <glyph glyph-name="calendar1" unicode="&#59363;" d="M557.45 429.45h-92.89v-92.89h92.89v92.89z m0-162.557h-92.89v-92.946h92.89v92.946zM929.12 801.121h-92.946v69.61a23.28 23.28 0 1 1-46.445 0v-69.667H232.28V870.731a23.28 23.28 0 1 1-46.444 0v-69.667H92.889C41.62 801.121 0 759.446 0 708.174v-743.228C0-86.43799999999999 41.619-128 92.89-128H929.12c51.27 0 92.89 41.619 92.89 92.89V708.174c0 51.328-41.62 92.946-92.89 92.946z m46.445-836.232a46.445 46.445 0 0 0-46.445-46.388H92.89a46.445 46.445 0 0 0-46.444 46.388V522.3399999999999h929.12v-557.45z m0 603.952H46.445V708.175c0 25.664 20.78 46.501 46.444 46.501h92.947v-69.723a23.222 23.222 0 1 1 46.444 0v69.723h557.45v-69.723a23.222 23.222 0 1 1 46.445 0v69.723h92.946c25.607 0 46.445-20.837 46.445-46.501V568.8399999999999zM789.73 266.89300000000003h-92.89v-92.946h92.89v92.946z m0 162.557h-92.89v-92.89h92.89v92.89zM557.45 104.27999999999997h-92.89v-92.946h92.89V104.27999999999997z m-232.224 0h-93.003v-92.946h92.89V104.27999999999997z m0 325.17h-93.003v-92.89h92.89v92.89z m0-162.557h-93.003v-92.946h92.89v92.946z"  horiz-adv-x="1024" />
      
      <glyph glyph-name="top" unicode="&#59373;" d="M141.56 203.64999999999998h158.76v-318.317h423.36V203.64999999999998h158.76L512 628.068zM88.64 893.333h846.72v-106.102H88.64V893.333z"  horiz-adv-x="1024" />
      
      <glyph glyph-name="youbian" unicode="&#58895;" d="M1136.64-128H143.403C64.384-128 0-65.067 0 12.288V755.669C0 833.024 64.299 896 143.403 896h993.237C1215.53 896 1280 833.152 1280 755.67v-743.382c-0.128-77.44-64.47-140.288-143.36-140.288z m0 954.197H143.403c-39.723 0-72.107-31.701-72.107-70.613v-743.381c0-38.912 32.384-70.528 72.107-70.528h993.237c39.723 0 71.893 31.616 71.893 70.528l0.171 743.381c0 38.912-32.341 70.613-72.064 70.613zM821.077 675.584h213.974v-209.28H821.077v209.28z m-627.413-516.31h619.605v-69.76H193.664v69.76z m0 142.635h368.853v-69.76H193.664v69.76z"  horiz-adv-x="1280" />
      
      <glyph glyph-name="jian2" unicode="&#58880;" d="M1022.72844194 384c0-51.07239532-34.04926105-85.12315264-85.12165638-85.12165637h-851.2150674c-51.07239532 0-85.12315264 34.04926105-85.12165636 85.12165637s34.04926105 85.12315264 85.12165636 85.12165637h851.2150674c51.07239532 0 85.12315264-34.04926105 85.12165638-85.12165637zM86.3925501 469.12149029l851.21490131 0c51.07289358 0 85.12149029-34.0485967 85.12149027-85.12149029 0-51.07289358-34.0485967-85.12149029-85.12149027-85.12149029L86.3925501 298.87850971c-51.07289358 0-85.12149029 34.0485967-85.12149029 85.12149029C1.27105981 435.07289358 35.31965503 469.12149029 86.3925501 469.12149029z"  horiz-adv-x="1024" />
      
      <glyph glyph-name="jia2" unicode="&#58888;" d="M946.05096574 456.86597958H579.61597958V823.30096574C579.61597958 860.38069647 549.07973073 890.91694533 512 890.91694533c-37.07973073 0-67.61597958-30.53624885-67.61597958-67.61597959V454.68481897H77.94903426C40.86930352 456.86597958 10.33305467 426.32973072 10.33305467 389.25s30.53624885-67.61597958 67.61597959-67.61597959H446.56518103V-46.982126369999946c0-37.07973073 30.53624885-67.61597958 67.61597962-67.61597958 37.07973073 0 67.61597958 30.53624885 67.61597958 67.61597958V321.63402040999995h368.61614678c37.07973073 0 67.61597958 30.53624885 67.61597958 67.61597959-4.36232126 37.07973073-34.89857011 67.61597958-71.97830085 67.61597958z"  horiz-adv-x="1024" />
      
      <glyph glyph-name="vk" unicode="&#59189;" d="M1096 598.857143q13.142857-36.571429-85.714286-168-13.714286-18.285714-37.142857-48.571429-22.857143-29.142857-31.428571-41.142857t-17.428572-28.285714-6.857143-24 7.428572-19.714286 18.571428-24.571428 32.571429-30.285715q2.285714-1.142857 2.857143-2.285714 80.571429-74.857143 109.142857-126.285714 1.714286-2.857143 3.714286-7.142857t4-15.142858-0.285715-19.428571-14.285714-15.714286-33.714286-7.142857l-146.285714-2.285714q-13.714286-2.857143-32 2.857143t-29.714286 12.571428l-11.428571 6.857143q-17.142857 12-40 36.571429t-39.142857 44.285714-34.857143 33.142857-32.285714 8.857143q-1.714286-0.571429-4.571429-2t-9.714286-8.285714-12.285714-16.857143-9.714286-29.714286-3.714285-44.285714q0-8.571429-2-15.714286t-4.285715-10.571428l-2.285714-2.857143q-10.285714-10.857143-30.285714-12.571429H537.142857q-40.571429-2.285714-83.428571 9.428572t-75.142857 30.285714-58.857143 37.714286T279.428571 131.428571l-14.285714 13.714286q-5.714286 5.714286-15.714286 17.142857t-40.857142 52-60.571429 86.285715-70 120.571428T3.428571 576.571429q-3.428571 9.142857-3.428571 15.428571t1.714286 9.142857l2.285714 3.428572q8.571429 10.857143 32.571429 10.857142l156.571428 1.142858q6.857143-1.142857 13.142857-3.714286t9.142857-4.857143l2.857143-1.714286q9.142857-6.285714 13.714286-18.285714 11.428571-28.571429 26.285714-59.142857t23.428572-46.571429l9.142857-16.571428q16.571429-34.285714 32-59.428572t27.714286-39.142857T374.285714 345.142857t19.428572-8 15.428571 2.857143q1.142857 0.571429 2.857143 2.857143t6.857143 12.571428 7.714286 26.857143 5.428571 46.285715 0 71.428571q-1.142857 22.857143-5.142857 41.714286t-8 26.285714l-3.428572 6.857143q-14.285714 19.428571-48.571428 24.571428-7.428571 1.142857 2.857143 13.714286 9.142857 10.857143 21.714285 17.142857 30.285714 14.857143 136.571429 13.714286 46.857143-0.571429 77.142857-7.428571 11.428571-2.857143 19.142857-7.714286t11.714286-13.714286 6-18.285714 2-26-0.571429-31.428572-1.428571-40.285714-0.857143-47.142857q0-6.285714-0.571428-24t-0.285715-27.428571 2-23.142858 6.571429-22.285714T661.714286 341.142857q4.571429-1.142857 9.714285-2.285714t14.857143 6.285714 21.714286 19.714286 29.714286 38.285714 38.857143 61.428572q34.285714 59.428571 61.142857 128.571428 2.285714 5.714286 5.714285 10t6.285715 6l2.285714 1.714286 2.857143 1.428571 7.428571 1.714286 11.428572 0.285714 164.571428 1.142857q22.285714 2.857143 36.571429-1.428571t17.714286-9.428571z"  horiz-adv-x="1097" />
      
      <glyph glyph-name="instagram1" unicode="&#58944;" d="M512 892.93748116c-138.22742017 0-155.53129372-0.61072497-209.83492371-3.05362489-54.15094756-2.49379405-91.1507028-11.09483668-123.51912659-23.66559284a249.43025893 249.43025893 0 0 1-90.18372119-58.68049194A249.48115307 249.48115307 0 0 1 29.78173657 717.3540503c-12.57075617-32.36842377-21.17179881-69.36817903-23.66559284-123.51912659C3.62235087 539.53129372 3.06251884 522.22742017 3.06251884 384s0.55983084-155.53129372 3.05362489-209.83492371c2.49379405-54.15094756 11.09483668-91.1507028 23.66559284-123.51912659a249.53204722 249.53204722 0 0 1 58.68049194-90.18372119 249.53204722 249.53204722 0 0 1 90.18372119-58.68049194c32.36842377-12.57075617 69.36817903-21.17179881 123.51912659-23.66559284 54.3036288-2.44289991 71.60750353-3.05362488 209.83492371-3.05362489s155.53129372 0.61072497 209.83492371 3.05362489c54.15094756 2.49379405 91.1507028 11.09483668 123.51912659 23.66559284a249.48115307 249.48115307 0 0 1 90.18372119 58.68049194 249.48115307 249.48115307 0 0 1 58.68049194 90.18372119c12.57075617 32.36842377 21.17179881 69.36817903 23.66559284 123.51912659 2.44289991 54.3036288 3.05362488 71.60750353 3.05362489 209.83492371s-0.61072497 155.53129372-3.05362489 209.83492371c-2.49379405 54.15094756-11.09483668 91.1507028-23.66559284 123.51912659a249.48115307 249.48115307 0 0 1-58.68049194 90.18372119 249.43025893 249.43025893 0 0 1-90.18372119 58.68049194c-32.36842377 12.57075617-69.36817903 21.17179881-123.51912659 23.66559284C667.53129372 892.32675618 650.22742017 892.93748116 512 892.93748116m0-91.71053482c135.88630736 0 151.96873215-0.50893787 205.61074183-2.95183659 49.67229852-2.29021866 76.59509047-10.53500585 94.56058432-17.50745014 23.71648699-9.26266176 40.71499806-20.30660548 58.52781069-38.06852277 17.81281143-17.81281143 28.80586101-34.81132368 38.06852277-58.52781069 6.92155014-17.96549267 15.26812441-44.8882858 17.50745014-94.50969018 2.44289991-53.69290382 2.95183779-69.72443447 2.95183659-205.66163597 0-135.88630736-0.50893787-151.96873215-2.95183659-205.61074183-2.29021866-49.67229852-10.5859-76.59509047-17.50745014-94.56058432a157.77061943 157.77061943 0 0 0-38.06852277-58.52781069c-17.81281143-17.81281143-34.81132368-28.80586101-58.52781069-38.06852277-17.96549267-6.92155014-44.8882858-15.26812441-94.50969018-17.50745014-53.64201088-2.44289991-69.72443447-2.95183779-205.66163597-2.95183659-135.88630736 0-152.01962511 0.50893787-205.61074183 2.95183659-49.67229852 2.29021866-76.59509047 10.5859-94.56058432 17.50745014a157.66883115 157.66883115 0 0 0-58.52781069 38.06852277 157.66883115 157.66883115 0 0 0-38.06852277 58.52781069c-6.97244309 17.96549267-15.26812441 44.8882858-17.50745014 94.50969018-2.44289991 53.69290382-2.95183779 69.72443447-2.95183659 205.66163597 0 135.88630736 0.50893787 151.96873215 2.95183659 205.61074183 2.29021866 49.67229852 10.53500585 76.59509047 17.50745014 94.56058432 9.26266176 23.71648699 20.30660548 40.71499806 38.06852277 58.52781069 17.81281143 17.81281143 34.81132368 28.80586101 58.52781069 38.06852277 17.96549267 6.97244309 44.8882858 15.26812441 94.50969018 17.50745014 53.69290382 2.44289991 69.72443447 2.95183779 205.66163597 2.95183659m0-586.85580867a169.62886233 169.62886233 0 1 0 0 339.25772466 169.62886233 169.62886233 0 0 0 0-339.25772466m0 430.96825831a261.33939598 261.33939598 0 1 1 0-522.67879196 261.33939598 261.33939598 0 0 1 0 522.67879196m332.74332532 10.33143165a61.07249769 61.07249769 0 1 0-122.14499538 0 61.07249769 61.07249769 0 0 0 122.14499538 0"  horiz-adv-x="1024" />
      
      <glyph glyph-name="up7" unicode="&#59170;" d="M512 647.314l512-475.428-58.514-51.2L512 537.6 58.514 120.686 0 171.886z"  horiz-adv-x="1024" />
      
      <glyph glyph-name="bottom7" unicode="&#59171;" d="M512 120.686L0 596.114l58.514 51.2L512 230.4l453.486 416.914 58.514-51.2z"  horiz-adv-x="1024" />
      
      <glyph glyph-name="left7" unicode="&#59172;" d="M248.686 384L724.114 896l51.2-58.514L358.4 384l416.914-453.486-51.2-58.514z"  horiz-adv-x="1024" />
      
      <glyph glyph-name="right7" unicode="&#59173;" d="M775.314 384l-475.428-512-51.2 58.514L665.6 384 248.686 837.486 299.886 896z"  horiz-adv-x="1024" />
      
      <glyph glyph-name="sousuo4" unicode="&#58896;" d="M1013.809658-41.849364 735.165069 209.728304c62.268031 72.69603 99.939396 166.953843 99.939396 270.033991C835.104466 709.637022 648.159214 896 417.561055 896 186.945252 896 0 709.637022 0 479.762295c0-229.874728 186.945252-416.237705 417.561055-416.237705 89.687845 0 172.72365 28.302047 240.779132 76.277897 1.58802-2.487898 3.405421-4.869928 5.681583-6.951999l278.715167-251.630602c14.203957-13.039409 36.33037-12.139531 49.422714 2.011492l23.679144 25.620057C1028.931138-76.944608 1028.013615-54.888773 1013.809658-41.849364zM35.483426 479.762295c0 209.971543 171.4003 380.789568 382.095274 380.789568 210.659685 0 382.059984-170.83567 382.059984-380.789568 0-209.971543-171.4003-380.789568-382.059984-380.789568C206.866081 98.972727 35.483426 269.790752 35.483426 479.762295z"  horiz-adv-x="1026" />
      
      <glyph glyph-name="sousuo" unicode="&#58902;" d="M990.980258-73.944422l-185.094554 185.094554c83.911344 83.23135 135.990938 198.518449 135.990938 325.781454C941.876642 690.049609 735.934251 896 482.824228 896 229.698205 896 23.747814 690.049609 23.747814 436.923587c0-253.142022 205.950391-459.060414 459.076414-459.060414 103.079195 0 198.334451 34.167733 275.037851 91.759283l188.342529-188.342528c6.183952-6.183952 14.279888-9.271928 22.383825-9.271928s16.199873 3.087976 22.391825 9.271928a31.655753 31.655753 0 0 1 0 44.77565zM87.06732 436.923587c0 218.222295 177.534613 395.748908 395.756908 395.748908 218.206295 0 395.732908-177.526613 395.732908-395.748908 0-218.198295-177.526613-395.740908-395.732908-395.740909-218.222295 0-395.756908 177.542613-395.756908 395.740909z"  horiz-adv-x="1024" />
      
      <glyph glyph-name="sousuo1" unicode="&#58971;" d="M938.88694045-3.74010310999995l-272.16372623 272.16372622c49.71026963 58.40956682 79.53643141 133.59634963 79.53643141 216.23967289 0 184.549376-149.75218725 334.30156325-334.30156326 334.30156325S77.03514075 669.212672 77.03514075 484.663296s149.75218725-334.30156325 334.30156325-334.30156325c82.02194489 0 157.2087277 29.82616178 215.61829452 78.91505303l272.16372623-272.16372623c5.59240533-5.59240533 12.42756741-8.07791882 19.88410784-8.0779188 6.83516208 0 14.29170252 2.48551348 19.88410786 8.0779188 10.5634323 11.18481067 10.5634323 28.58340503 0 39.14683734zM126.74541037 484.663296C126.74541037 641.8720237 254.1279763 769.25458963 411.336704 769.25458963s284.59129363-128.0039443 284.59129363-284.59129363-128.0039443-284.59129363-284.59129363-284.59129363S126.74541037 328.07594667 126.74541037 484.663296z"  horiz-adv-x="1024" />
      
      <glyph glyph-name="shangchuan" unicode="&#58882;" d="M864 341.33333300000004a32 32 0 0 0 32-32v-234.666666a32 32 0 0 0-27.648-31.701334L864 42.66666699999996H160a32 32 0 0 0-32 32v234.666666a32 32 0 1 0 64 0v-202.624l640-0.042666v202.666666a32 32 0 0 0 32 32z m-340.522667 380.074667l2.773334-2.56 193.194666-211.797333a23.210667 23.210667 0 0 0 5.888-15.616c0-10.837333-7.125333-19.882667-16.512-21.76l-3.626666-0.341334H576v-170.666666a21.333333 21.333333 0 0 0-21.333333-21.333334h-85.333334a21.333333 21.333333 0 0 0-21.333333 21.333334v170.666666H318.805333a18.986667 18.986667 0 0 0-11.818666 4.224l-2.432 2.261334a23.722667 23.722667 0 0 0-2.56 27.733333l2.56 3.498667 193.194666 211.797333c6.997333 7.68 17.834667 8.533333 25.728 2.56z"  horiz-adv-x="1024" />
      
      <glyph glyph-name="top2" unicode="&#58935;" d="M512 768c51.864 0 102.116-10.145 149.428-30.151 45.7-19.342 86.756-47.028 122.027-82.3 35.27-35.27 62.957-76.325 82.3-122.026C885.854 486.116 896 435.863 896 384s-10.145-102.116-30.151-149.428c-19.342-45.7-47.028-86.756-82.3-122.027-35.27-35.27-76.325-62.957-122.026-82.3C614.116 10.146 563.863 0 512 0s-102.116 10.145-149.428 30.151c-45.7 19.342-86.756 47.028-122.027 82.3-35.27 35.27-62.957 76.325-82.3 122.026C138.146 281.884 128 332.137 128 384s10.145 102.116 30.151 149.428c19.342 45.7 47.028 86.756 82.3 122.027 35.27 35.27 76.325 62.957 122.026 82.3C409.884 757.854 460.137 768 512 768m0 42.667C276.385 810.667 85.333 619.615 85.333 384S276.385-42.667 512-42.667 938.667 148.385 938.667 384 747.615 810.667 512 810.667zM711.111 263.111c-5.5 0-10.904 2.086-15.075 6.258L512 453.404 327.964 269.37c-8.343-8.344-21.807-8.344-30.15 0s-8.344 21.807 0 30.151l199.11 199.111c8.344 8.344 21.808 8.344 30.152 0l0.284-0.284L726.187 299.52c8.343-8.344 8.343-21.807 0-30.151-4.172-4.172-9.577-6.258-15.076-6.258z"  horiz-adv-x="1024" />
      
    </font>
</defs>
</svg>
